<svg xmlns="http://www.w3.org/2000/svg" viewBox="0 0 254 254"><path d="M253.52 21.272a3.974 3.974 0 0 0-1.156-2.788L235.516 1.636a3.94 3.94 0 0 0-5.574 0L201.908 29.67C181.176 13.69 155.2 4.184 127 4.184 59.172 4.184 4.184 59.172 4.184 127c0 28.2 9.506 54.176 25.484 74.908L1.636 229.94a3.972 3.972 0 0 0-1.156 2.79 3.97 3.97 0 0 0 1.156 2.786l16.85 16.852a3.965 3.965 0 0 0 2.788 1.154c1.04 0 2.052-.42 2.788-1.154l28.032-28.032c20.73 15.976 46.708 25.48 74.908 25.48 67.828 0 122.814-54.984 122.814-122.814 0-28.2-9.504-54.178-25.482-74.91l28.032-28.032a3.978 3.978 0 0 0 1.154-2.788ZM55.426 127c0-19.12 7.446-37.092 20.964-50.61C89.908 62.872 107.882 55.426 127 55.426c13.716 0 26.844 3.832 38.158 10.992l-98.742 98.74c-7.158-11.314-10.99-24.442-10.99-38.158Zm143.148 0c0 19.118-7.446 37.09-20.964 50.61-13.518 13.52-31.492 20.966-50.61 20.966-13.716 0-26.844-3.836-38.16-10.992l98.742-98.744c7.158 11.316 10.992 24.444 10.992 38.16Z" fill="#000" fill-rule="nonzero"/></svg>