<svg version="1.1" xmlns="http://www.w3.org/2000/svg" xmlns:xlink="http://www.w3.org/1999/xlink">
  <defs>
    <symbol id="feed-icon" viewBox="0 0 24 24">
      <path d="M3.194 17.6c-1.762 0-3.194 1.438-3.194 3.189 0 1.761 1.432 3.183 3.194 3.183 1.769 0 3.199-1.421 3.199-3.183-0-1.752-1.43-3.189-3.199-3.189zM0.004 8.155v4.6c2.995 0 5.812 1.171 7.933 3.293 2.118 2.117 3.288 4.946 3.288 7.952h4.62c-0-8.738-7.108-15.845-15.841-15.845zM0.009 0v4.602c10.682 0 19.377 8.703 19.377 19.398h4.614c0-13.23-10.764-24-23.991-24z"></path>
    </symbol>

    <symbol id="github-icon" viewBox="0 0 24 24">
      <path d="M12 0c-6.627 0-12 5.373-12 12s5.373 12 12 12 12-5.373 12-12-5.373-12-12-12zM19.126 19.126c-0.926 0.926-2.004 1.653-3.204 2.161-0.305 0.129-0.614 0.242-0.928 0.34v-1.798c0-0.945-0.324-1.641-0.973-2.086 0.406-0.039 0.779-0.094 1.119-0.164s0.699-0.172 1.078-0.305 0.719-0.291 1.020-0.475 0.59-0.422 0.867-0.715 0.51-0.625 0.697-0.996 0.336-0.816 0.445-1.336 0.164-1.092 0.164-1.717c0-1.211-0.395-2.242-1.184-3.094 0.359-0.938 0.32-1.957-0.117-3.059l-0.293-0.035c-0.203-0.023-0.568 0.062-1.096 0.258s-1.119 0.516-1.775 0.961c-0.93-0.258-1.895-0.387-2.895-0.387-1.008 0-1.969 0.129-2.883 0.387-0.414-0.281-0.807-0.514-1.178-0.697s-0.668-0.309-0.891-0.375-0.43-0.107-0.621-0.123-0.314-0.020-0.369-0.012-0.094 0.016-0.117 0.023c-0.437 1.109-0.477 2.129-0.117 3.059-0.789 0.852-1.184 1.883-1.184 3.094 0 0.625 0.055 1.197 0.164 1.717s0.258 0.965 0.445 1.336 0.42 0.703 0.697 0.996 0.566 0.531 0.867 0.715 0.641 0.342 1.020 0.475 0.738 0.234 1.078 0.305 0.713 0.125 1.119 0.164c-0.641 0.437-0.961 1.133-0.961 2.086v1.834c-0.354-0.105-0.703-0.23-1.045-0.375-1.2-0.508-2.278-1.234-3.204-2.161s-1.653-2.004-2.161-3.204c-0.525-1.241-0.791-2.561-0.791-3.922s0.266-2.681 0.791-3.922c0.508-1.2 1.234-2.278 2.161-3.204s2.004-1.653 3.204-2.161c1.241-0.525 2.561-0.791 3.922-0.791s2.681 0.266 3.922 0.791c1.2 0.508 2.278 1.234 3.204 2.161s1.653 2.004 2.161 3.204c0.525 1.241 0.791 2.561 0.791 3.922s-0.266 2.681-0.791 3.922c-0.508 1.2-1.234 2.278-2.161 3.204z"></path>
    </symbol>

    <symbol id="menu-icon" viewBox="0 0 24 24">
      <path d="M2.016 5.484h19.969v2.016h-19.969v-2.016zM2.016 10.5h19.969v2.016h-19.969v-2.016zM2.016 15.516h19.969v1.969h-19.969v-1.969z"></path>
    </symbol>

    <symbol id="soren-icon" viewBox="0 0 24 24">
      <path d="M23.861 2.088c0-0.097-0.040-0.192-0.108-0.261l-1.579-1.579c-0.144-0.144-0.378-0.144-0.523 0l-2.628 2.628c-1.944-1.498-4.379-2.389-7.023-2.389-6.359 0-11.514 5.155-11.514 11.514 0 2.644 0.891 5.079 2.389 7.023l-2.628 2.628c-0.069 0.069-0.108 0.164-0.108 0.262s0.040 0.192 0.108 0.261l1.58 1.58c0.069 0.069 0.164 0.108 0.261 0.108s0.192-0.039 0.261-0.108l2.628-2.628c1.943 1.498 4.379 2.389 7.023 2.389 6.359 0 11.514-5.155 11.514-11.514 0-2.644-0.891-5.079-2.389-7.023l2.628-2.628c0.069-0.069 0.108-0.164 0.108-0.261zM5.29 12c0-1.793 0.698-3.477 1.965-4.745s2.952-1.965 4.745-1.965c1.286 0 2.517 0.359 3.577 1.030l-9.257 9.257c-0.671-1.061-1.030-2.291-1.030-3.577zM18.71 12c0 1.792-0.698 3.477-1.965 4.745s-2.952 1.966-4.745 1.966c-1.286 0-2.517-0.36-3.578-1.030l9.257-9.257c0.671 1.061 1.030 2.292 1.030 3.578z"></path>
    </symbol>

    <symbol id="twitter-icon" viewBox="0 0 24 24">
      <path d="M24 4.557c-0.883 0.392-1.832 0.656-2.828 0.775 1.017-0.609 1.797-1.574 2.165-2.724-0.951 0.564-2.005 0.974-3.127 1.195-0.898-0.957-2.178-1.555-3.594-1.555-2.719 0-4.924 2.204-4.924 4.924 0 0.386 0.044 0.762 0.127 1.122-4.092-0.205-7.72-2.166-10.149-5.145-0.424 0.727-0.667 1.573-0.667 2.475 0 1.708 0.869 3.215 2.19 4.098-0.807-0.026-1.566-0.247-2.23-0.616-0 0.021-0 0.041-0 0.062 0 2.386 1.697 4.376 3.95 4.828-0.413 0.112-0.848 0.173-1.297 0.173-0.317 0-0.626-0.031-0.926-0.088 0.627 1.956 2.445 3.38 4.6 3.419-1.685 1.321-3.808 2.108-6.115 2.108-0.397 0-0.789-0.023-1.175-0.069 2.179 1.397 4.767 2.212 7.548 2.212 9.057 0 14.009-7.503 14.009-14.010 0-0.213-0.005-0.426-0.014-0.637 0.962-0.694 1.797-1.561 2.457-2.549z"></path>
    </symbol>
  </defs>
</svg>
