<?xml version="1.0" encoding="UTF-8"?>
<svg width="254px" height="254px" viewBox="0 0 254 254" version="1.1" xmlns="http://www.w3.org/2000/svg" xmlns:xlink="http://www.w3.org/1999/xlink">
  <defs>
    <linearGradient x1="16.9858273%" y1="15.60219%" x2="91.794899%" y2="91.0130177%" id="linearGradient-1">
      <stop stop-color="#D8D8D8" offset="0%"></stop>
      <stop stop-color="#D8D8D8" offset="41.0736909%"></stop>
      <stop stop-color="#F6F6F6" offset="67.5068623%"></stop>
      <stop stop-color="#C8C8C8" offset="100%"></stop>
    </linearGradient>
  </defs>
  <g id="Page-1" stroke="none" stroke-width="1" fill="none" fill-rule="evenodd">
    <g id="soren-logo" fill="url(#linearGradient-1)" fill-rule="nonzero">
      <path d="M253.52,21.272 C253.52,20.234 253.098,19.22 252.364,18.484 L235.516,1.636 C233.976,0.096 231.48,0.096 229.942,1.636 L201.908,29.67 C181.176,13.69 155.2,4.184 127,4.184 C59.172,4.184 4.184,59.172 4.184,127 C4.184,155.2 13.69,181.176 29.668,201.908 L1.636,229.94 C0.902,230.674 0.48,231.69 0.48,232.73 C0.48,233.768 0.902,234.78 1.636,235.516 L18.486,252.368 C19.22,253.102 20.234,253.522 21.274,253.522 C22.314,253.522 23.326,253.102 24.062,252.368 L52.094,224.336 C72.824,240.312 98.802,249.816 127.002,249.816 C194.83,249.816 249.816,194.832 249.816,127.002 C249.816,98.802 240.312,72.824 224.334,52.092 L252.366,24.06 C253.098,23.326 253.52,22.31 253.52,21.272 Z M55.426,127 C55.426,107.88 62.872,89.908 76.39,76.39 C89.908,62.872 107.882,55.426 127,55.426 C140.716,55.426 153.844,59.258 165.158,66.418 L66.416,165.158 C59.258,153.844 55.426,140.716 55.426,127 Z M198.574,127 C198.574,146.118 191.128,164.09 177.61,177.61 C164.092,191.13 146.118,198.576 127,198.576 C113.284,198.576 100.156,194.74 88.84,187.584 L187.582,88.84 C194.74,100.156 198.574,113.284 198.574,127 Z" id="Shape"></path>
    </g>
  </g>
</svg>
